<?xml version="1.0" encoding="UTF-8"?>
<!DOCTYPE svg PUBLIC "-//W3C//DTD SVG 1.1//EN" "http://www.w3.org/Graphics/SVG/1.1/DTD/svg11.dtd">
<!-- Creator: CorelDRAW 2021 (64-Bit) -->
<svg xmlns="http://www.w3.org/2000/svg" xml:space="preserve" width="120mm" height="60mm" version="1.1" style="shape-rendering:geometricPrecision; text-rendering:geometricPrecision; image-rendering:optimizeQuality; fill-rule:evenodd; clip-rule:evenodd"
viewBox="0 0 11998.94 5999.47"
 xmlns:xlink="http://www.w3.org/1999/xlink"
 xmlns:xodm="http://www.corel.com/coreldraw/odm/2003">
 <defs>
  <style type="text/css">
   <![CDATA[
    .fil0 {fill:#FEFEFE}
    .fil1 {fill:#2B2A29;fill-rule:nonzero}
    .fil5 {fill:#2B2A29;fill-rule:nonzero}
    .fil3 {fill:black;fill-rule:nonzero}
    .fil2 {fill:#115740;fill-rule:nonzero}
    .fil4 {fill:#9C9C9C;fill-rule:nonzero}
   ]]>
  </style>
 </defs>
 <g id="Ebene_x0020_1">
  <metadata id="CorelCorpID_0Corel-Layer"/>
  <g id="_2048342327568">
   <rect class="fil0" x="-0" y="-0" width="11998.94" height="5999.47"/>
   <g>
    <path class="fil1" d="M4184.6 3542.12l50.1 0 0 0 -1.83 72.2 -5.42 71.27 -8.92 70.23 -12.35 69.12 -15.67 67.91 -18.92 66.6 -22.07 65.23 -25.14 63.73 -28.11 62.18 -31 60.51 -33.79 58.77 -36.52 56.95 -39.13 55.02 -41.66 53.02 -44.12 50.92 -46.47 48.75 -48.74 46.46 -50.93 44.12 -53.01 41.67 -55.03 39.12 -56.94 36.51 -58.77 33.8 -60.51 30.99 -62.18 28.12 -63.73 25.13 -65.21 22.08 -66.62 18.91 -67.9 15.67 -69.11 12.35 -70.23 8.92 -71.27 5.42 -72.19 1.82 0 -50.08 69.67 -1.76 68.73 -5.24 67.73 -8.6 66.63 -11.91 65.48 -15.11 64.2 -18.23 62.87 -21.28 61.45 -24.23 59.94 -27.1 58.35 -29.89 56.67 -32.58 54.91 -35.21 53.07 -37.74 51.13 -40.19 49.13 -42.54 47 -44.82 44.83 -47.01 42.54 -49.12 40.18 -51.14 37.75 -53.06 35.2 -54.92 32.59 -56.67 29.9 -58.35 27.09 -59.94 24.24 -61.45 21.27 -62.87 18.24 -64.22 15.11 -65.47 11.91 -66.64 8.6 -67.73 5.24 -68.73 1.75 -69.68 0 0zm-1353.39 -1353.34l0 -50.08 0 0 72.19 1.82 71.27 5.42 70.23 8.92 69.11 12.35 67.9 15.67 66.62 18.91 65.21 22.08 63.73 25.13 62.18 28.11 60.51 30.99 58.77 33.81 56.94 36.5 55.03 39.12 53.01 41.67 50.93 44.11 48.74 46.47 46.47 48.73 44.12 50.93 41.66 53.01 39.13 55.03 36.51 56.94 33.8 58.77 31 60.51 28.11 62.17 25.14 63.73 22.07 65.21 18.92 66.61 15.67 67.9 12.35 69.11 8.92 70.23 5.42 71.27 1.83 72.19 -50.1 0 -1.75 -69.67 -5.24 -68.73 -8.6 -67.73 -11.91 -66.63 -15.11 -65.46 -18.24 -64.21 -21.27 -62.87 -24.24 -61.45 -27.09 -59.93 -29.9 -58.35 -32.58 -56.67 -35.21 -54.91 -37.75 -53.07 -40.18 -51.13 -42.54 -49.11 -44.83 -47.01 -47 -44.83 -49.13 -42.53 -51.13 -40.19 -53.07 -37.74 -54.91 -35.2 -56.67 -32.59 -58.35 -29.89 -59.94 -27.09 -61.45 -24.23 -62.87 -21.28 -64.2 -18.23 -65.48 -15.11 -66.63 -11.91 -67.73 -8.6 -68.73 -5.24 -69.67 -1.76 0 0zm-1353.41 1353.34l-50.1 0 0 0 1.83 -72.19 5.42 -71.27 8.92 -70.23 12.35 -69.11 15.67 -67.9 18.92 -66.61 22.07 -65.21 25.14 -63.74 28.12 -62.16 30.99 -60.51 33.81 -58.77 36.5 -56.94 39.13 -55.03 41.67 -53.01 44.12 -50.92 46.46 -48.74 48.75 -46.47 50.92 -44.11 53.02 -41.67 55.03 -39.12 56.94 -36.51 58.78 -33.8 60.51 -30.99 62.17 -28.11 63.74 -25.13 65.21 -22.08 66.61 -18.91 67.9 -15.67 69.12 -12.35 70.23 -8.92 71.27 -5.42 72.19 -1.82 0 50.08 -69.67 1.76 -68.73 5.24 -67.73 8.6 -66.64 11.91 -65.46 15.11 -64.21 18.23 -62.87 21.28 -61.46 24.23 -59.93 27.09 -58.35 29.89 -56.68 32.6 -54.91 35.19 -53.07 37.74 -51.14 40.19 -49.12 42.53 -47.01 44.83 -44.82 47 -42.54 49.12 -40.19 51.13 -37.75 53.07 -35.2 54.91 -32.59 56.67 -29.89 58.35 -27.1 59.94 -24.24 61.44 -21.27 62.87 -18.24 64.21 -15.11 65.46 -11.91 66.63 -8.6 67.73 -5.24 68.73 -1.75 69.67 0 0zm1353.41 1353.42l0 50.08 0 0 -72.19 -1.82 -71.27 -5.42 -70.23 -8.92 -69.12 -12.35 -67.9 -15.67 -66.61 -18.91 -65.21 -22.08 -63.74 -25.13 -62.17 -28.12 -60.51 -30.99 -58.78 -33.79 -56.94 -36.52 -55.03 -39.12 -53.02 -41.67 -50.92 -44.12 -48.75 -46.46 -46.46 -48.75 -44.12 -50.92 -41.67 -53.02 -39.13 -55.02 -36.51 -56.95 -33.8 -58.77 -30.99 -60.51 -28.12 -62.17 -25.14 -63.74 -22.07 -65.23 -18.92 -66.6 -15.67 -67.91 -12.35 -69.12 -8.92 -70.23 -5.42 -71.27 -1.83 -72.2 50.1 0 1.75 69.68 5.24 68.73 8.6 67.73 11.91 66.64 15.11 65.47 18.24 64.22 21.27 62.87 24.24 61.44 27.1 59.95 29.89 58.35 32.6 56.67 35.19 54.92 37.75 53.06 40.19 51.14 42.54 49.12 44.82 47.01 47.01 44.82 49.12 42.54 51.14 40.19 53.07 37.74 54.91 35.2 56.68 32.59 58.35 29.89 59.93 27.1 61.46 24.23 62.87 21.28 64.21 18.23 65.46 15.11 66.64 11.91 67.73 8.6 68.73 5.24 69.67 1.76 0 0z"/>
   </g>
   <path class="fil2" d="M4669.15 3542.09l0 -2450.51 -3675.83 0 0 2450.51 183.82 0c0,-913.54 740.52,-1654.15 1654.1,-1654.15 913.54,0 1654.07,740.61 1654.07,1654.15l183.82 0z"/>
   <path class="fil3" d="M5074.38 1713.17l172.56 0 0 -223.23 111.62 -0.86c33.48,0 108.18,0 156.26,-26.62 24.04,-12.87 93.58,-60.09 93.58,-169.13 0,-80.71 -35.2,-136.52 -87.57,-168.29 -50.66,-31.77 -113.33,-31.77 -161.41,-31.77l-285.04 0 0 619.89zm172.56 -504.84l75.55 0c49.8,0 110.75,4.29 110.75,79.84 0,83.28 -67.81,83.28 -109.89,83.28l-76.41 0 0 -163.13z"/>
   <path class="fil4" d="M5673.68 1713.17l88.43 0 66.96 -161.42 287.62 0 66.96 161.42 93.58 0 -250.7 -619.89 -91.87 0 -261 619.89zm303.07 -534.88l114.19 303.92 -234.39 0 120.2 -303.92zm417.25 534.88l85 0 0 -279.9 108.17 0c103.89,0 125.36,25.76 135.66,115.91 6.01,47.22 14.6,122.77 28.34,163.99l91.86 0c-24.05,-68.69 -30.05,-121.92 -38.64,-194.9 -8.58,-77.26 -35.2,-103.88 -94.44,-119.33 18.89,-5.15 46.37,-13.74 72.98,-40.36 27.47,-27.48 43.79,-66.1 43.79,-109.89 0,-49.81 -22.33,-97.02 -68.69,-126.21 -45.5,-29.2 -110.75,-29.2 -142.51,-29.2l-221.52 0 0 619.89zm83.28 -547.76l135.65 0c34.35,0 123.64,0 123.64,100.45 0,51.52 -30.05,73.83 -42.07,80.7 -23.18,13.74 -72.12,13.74 -81.57,13.74l-135.65 0 0 -194.89zm525.44 547.76l85.85 0 0 -619.89 -85.85 0 0 619.89zm245.54 -181.16c0,30.06 0.86,79.85 36.06,125.36 48.95,62.66 145.11,70.4 192.32,70.4 158.84,0 244.69,-83.29 244.69,-193.18 0,-25.76 -4.29,-85.85 -61.81,-123.64 -36.06,-24.04 -52.38,-27.47 -200.04,-65.24 -75.55,-18.03 -111.61,-36.92 -111.61,-91.86 0,-61.81 51.52,-100.45 137.37,-100.45 60.95,0 126.21,17.17 130.5,94.44l89.29 0c-1.72,-25.76 -3.43,-67.83 -37.78,-105.6 -49.81,-54.1 -133.08,-60.96 -174.29,-60.96 -116.76,0 -236.1,54.95 -236.1,181.15 0,41.22 13.74,87.57 64.39,121.92 31.77,21.46 73.83,31.77 168.28,54.95 86.71,21.47 142.52,35.21 142.52,104.74 0,30.92 -16.31,110.76 -145.1,110.76 -142.52,0 -147.67,-79.84 -149.39,-122.78l-89.29 0z"/>
   <polygon class="fil3" points="5069.22,2743.44 5521.69,2743.44 5521.69,2621.53 5243.52,2621.53 5243.52,2123.56 5069.22,2123.56 "/>
   <path class="fil4" d="M5621.28 2437.79c0,169.99 68.68,320.24 279.9,320.24 220.65,0 286.75,-165.71 286.75,-330.54 0,-210.35 -108.18,-320.25 -279.9,-320.25 -57.51,0 -142.52,13.75 -206.91,83.28 -67.82,72.97 -79.84,176.86 -79.84,247.27zm90.14 -5.15c0,-127.07 40.36,-253.28 197.47,-253.28 141.67,0 188.03,106.46 188.03,247.27 0,42.07 -5.16,139.94 -55.82,201.76 -36.06,42.93 -86.71,56.66 -137.37,56.66 -48.94,0 -102.17,-12.88 -137.37,-56.66 -42.93,-53.24 -54.96,-127.93 -54.96,-195.75zm637.05 310.79l174.29 0c91,0 167.42,0 228.37,-50.66 47.23,-37.77 103.03,-120.2 103.03,-254.13 0,-84.99 -21.47,-170 -76.41,-234.39 -68.68,-80.7 -166.57,-80.7 -249.84,-80.7l-179.44 0 0 619.88zm85.85 -548.61l103.03 0c75.55,0 125.35,10.3 164.85,54.09 58.38,64.39 60.09,169.99 60.09,193.17 0,36.07 -2.57,137.38 -81.56,196.61 -41.21,30.91 -103.02,34.34 -162.27,34.34l-84.14 0 0 -478.21zm566.65 548.61l84.99 0 0 -279.89 108.18 0c103.88,0 125.35,25.76 135.66,115.91 6.01,47.22 14.59,122.77 28.33,163.98l91.86 0c-24.04,-68.68 -30.05,-121.91 -38.63,-194.89 -8.58,-77.27 -35.2,-103.88 -94.44,-119.33 18.89,-5.15 46.36,-13.75 72.97,-40.36 27.48,-27.48 43.79,-66.1 43.79,-109.9 0,-49.8 -22.32,-97.01 -68.68,-126.21 -45.51,-29.19 -110.75,-29.19 -142.52,-29.19l-221.51 0 0 619.88zm83.28 -547.75l135.65 0c34.35,0 123.63,0 123.63,100.45 0,51.52 -30.05,73.82 -42.06,80.7 -23.19,13.73 -72.12,13.73 -81.57,13.73l-135.65 0 0 -194.88zm500.55 242.11c0,169.99 68.68,320.24 279.89,320.24 220.65,0 286.75,-165.71 286.75,-330.54 0,-210.35 -108.17,-320.25 -279.89,-320.25 -57.52,0 -142.52,13.75 -206.91,83.28 -67.83,72.97 -79.84,176.86 -79.84,247.27zm90.14 -5.15c0,-127.07 40.36,-253.28 197.47,-253.28 141.66,0 188.02,106.46 188.02,247.27 0,42.07 -5.16,139.94 -55.82,201.76 -36.05,42.93 -86.7,56.66 -137.36,56.66 -48.95,0 -102.17,-12.88 -137.37,-56.66 -42.94,-53.24 -54.96,-127.93 -54.96,-195.75zm643.06 310.79l78.12 0 0 -526.29 315.1 526.29 109.89 0 0 -619.88 -78.99 0 0 512.56 -304.78 -512.56 -119.34 0 0 619.88z"/>
   <path class="fil3" d="M5073.52 3153.84l-0.86 352.87c0,101.31 0.86,283.32 293.63,283.32 78.12,0 188.87,-14.6 248.98,-88.44 38.64,-45.51 48.08,-120.2 48.08,-188.87l0 -358.88 -167.42 0 0 362.31c0,61.81 -14.6,150.25 -123.64,150.25 -42.07,0 -82.41,-16.31 -105.6,-50.66 -17.17,-25.76 -19.75,-60.1 -19.75,-93.58l0 -368.32 -173.42 0z"/>
   <path class="fil4" d="M5842.81 3773.72l78.12 0 0 -526.3 315.1 526.3 109.89 0 0 -619.88 -78.98 0 0 512.55 -304.79 -512.55 -119.34 0 0 619.88zm696.29 0l85.85 0 0 -619.88 -85.85 0 0 619.88zm752.95 -619.88l-86.72 0 -185.44 529.72 -176 -529.72 -95.3 0 220.65 619.88 94.44 0 228.38 -619.88zm116.77 619.88l395.79 0 0 -75.55 -309.93 0 0 -206.05 288.47 0 0 -72.12 -288.47 0 0 -193.17 303.07 0 0 -72.97 -388.93 0 0 619.88zm567.49 0l84.99 0 0 -279.89 108.18 0c103.88,0 125.35,25.75 135.66,115.9 6.01,47.22 14.59,122.77 28.33,163.99l91.86 0c-24.04,-68.68 -30.05,-121.92 -38.63,-194.89 -8.59,-77.27 -35.2,-103.89 -94.45,-119.34 18.9,-5.15 46.37,-13.74 72.98,-40.36 27.47,-27.47 43.79,-66.1 43.79,-109.89 0,-49.8 -22.32,-97.02 -68.68,-126.21 -45.51,-29.19 -110.75,-29.19 -142.52,-29.19l-221.51 0 0 619.88zm83.27 -547.75l135.66 0c34.35,0 123.63,0 123.63,100.45 0,51.51 -30.05,73.82 -42.07,80.7 -23.18,13.73 -72.11,13.73 -81.56,13.73l-135.66 0 0 -194.88zm497.98 366.6c0,30.05 0.86,79.84 36.06,125.35 48.94,62.67 145.1,70.4 192.31,70.4 158.84,0 244.69,-83.28 244.69,-193.18 0,-25.75 -4.29,-85.85 -61.81,-123.63 -36.06,-24.04 -52.37,-27.48 -200.04,-65.24 -75.55,-18.04 -111.61,-36.93 -111.61,-91.87 0,-61.81 51.52,-100.45 137.37,-100.45 60.96,0 126.21,17.18 130.5,94.44l89.29 0c-1.71,-25.76 -3.43,-67.82 -37.78,-105.6 -49.8,-54.09 -133.08,-60.96 -174.29,-60.96 -116.76,0 -236.1,54.95 -236.1,181.15 0,41.22 13.74,87.58 64.39,121.92 31.77,21.47 73.84,31.77 168.28,54.95 86.72,21.47 142.53,35.21 142.53,104.75 0,30.91 -16.32,110.76 -145.1,110.76 -142.52,0 -147.68,-79.85 -149.4,-122.78l-89.28 0zm634.47 181.15l85.85 0 0 -619.88 -85.85 0 0 619.88zm508.27 0l0 -546.9 207.77 0 0 -72.97 -500.55 0 0 72.97 207.77 0 0 546.9 85 0zm191.44 0l88.43 0 66.96 -161.41 287.62 0 66.96 161.41 93.58 0 -250.7 -619.88 -91.87 0 -261 619.88zm303.07 -534.88l114.19 303.93 -234.39 0 120.2 -303.93zm-122.78 -149.39l78.99 0 0 -87.57 -78.99 0 0 87.57zm162.28 0l79.84 0 0 -87.57 -79.84 0 0 87.57zm550.33 684.27l0 -546.9 207.77 0 0 -72.97 -500.54 0 0 72.97 207.77 0 0 546.9 84.99 0z"/>
   <path class="fil3" d="M5047.76 4606.5c0.86,26.61 1.71,87.57 47.22,137.37 56.66,63.53 160.56,73.84 224.95,73.84 155.4,0 273.89,-61.82 273.89,-200.05 0,-131.36 -97.88,-157.12 -180.3,-178.57l-115.91 -30.05c-24.9,-6.88 -62.66,-18.04 -62.66,-63.54 0,-36.91 31.76,-65.24 81.55,-65.24 82.42,0 81.56,66.96 81.56,85.85l174.29 0c-0.86,-66.11 -11.17,-197.47 -253.28,-197.47 -185.44,0 -261,93.59 -261,194.04 0,129.64 110.75,158.83 153.68,169.98l151.97 39.5c41.21,11.16 53.24,30.91 53.24,60.1 0,70.4 -77.27,70.4 -91.87,70.4 -102.17,0 -103.89,-71.26 -104.74,-96.16l-172.57 0z"/>
   <path class="fil4" d="M5673.68 4803.97l88.43 0 66.96 -161.41 287.62 0 66.96 161.41 93.58 0 -250.7 -619.88 -91.87 0 -261 619.88zm303.07 -534.88l114.19 303.93 -234.39 0 120.2 -303.93zm423.26 534.88l373.48 0 0 -76.4 -288.47 0 0 -543.47 -85 0 0 619.88zm461.91 0l466.2 0 0 -75.55 -367.47 0 361.46 -459.33 0 -84.99 -450.74 0 0 75.55 348.57 0 -358.02 458.47 0 85.85zm610.42 0l225.81 0c48.94,0 97.01,0 139.94,-28.33 20.61,-13.74 74.69,-56.66 74.69,-140.81 0,-118.48 -87.56,-144.23 -123.62,-154.54 30.05,-11.16 104.74,-37.78 104.74,-139.95 0,-48.94 -17.18,-84.99 -43.79,-110.75 -38.65,-37.78 -80.7,-45.51 -156.26,-45.51l-221.52 0 0 619.88zm83.28 -549.47l123.64 0c47.22,0 125.35,0 125.35,93.58 0,97.87 -99.6,97.87 -128.79,97.87l-120.2 0 0 -191.45zm0 265.3l150.25 0c75.55,0 118.49,45.51 118.49,107.32 0,71.25 -54.1,107.31 -121.92,107.31l-146.82 0 0 -214.63zm522.01 -335.7l0 377.77c0,92.72 17.17,128.79 36.06,156.26 57.52,82.42 160.56,98.74 218.92,98.74 44.65,0 139.09,-9.45 200.05,-85.86 49.8,-61.81 50.66,-131.36 50.66,-164.84l0 -382.07 -83.28 0 0 380.35c0,44.64 0,176 -167.43,176 -42.92,0 -103.02,-9.45 -141.65,-60.96 -12.88,-18.03 -27.48,-45.51 -27.48,-111.61l0 -383.78 -85.85 0zm696.28 619.88l84.99 0 0 -279.89 108.18 0c103.88,0 125.35,25.76 135.66,115.91 6.01,47.22 14.59,122.77 28.33,163.98l91.86 0c-24.04,-68.68 -30.05,-121.91 -38.63,-194.89 -8.59,-77.27 -35.2,-103.88 -94.44,-119.33 18.89,-5.15 46.36,-13.74 72.97,-40.36 27.48,-27.48 43.79,-66.1 43.79,-109.9 0,-49.8 -22.32,-97.01 -68.68,-126.21 -45.51,-29.19 -110.75,-29.19 -142.52,-29.19l-221.51 0 0 619.88zm83.28 -547.75l135.65 0c34.35,0 123.63,0 123.63,100.45 0,51.52 -30.05,73.83 -42.07,80.7 -23.18,13.73 -72.11,13.73 -81.56,13.73l-135.65 0 0 -194.88zm1038.86 82.42c-1.72,-24.05 -4.29,-60.1 -41.22,-98.74 -59.23,-60.09 -133.93,-66.11 -182.87,-66.11 -30.91,0 -111.61,2.59 -172.56,43.8 -117.62,78.98 -133.08,224.94 -133.08,286.75 0,87.57 25.76,174.28 86.71,236.11 43.79,44.64 110.76,77.27 224.94,77.27 105.61,0 184.59,-25.76 220.65,-37.79l0 -305.64 -227.52 0 0 71.26 141.67 0 0 183.72c-19.75,6.01 -64.39,19.75 -134.8,19.75 -61.81,0 -124.48,-14.6 -164.84,-60.95 -45.51,-54.1 -56.66,-142.52 -56.66,-194.89 0,-58.37 12.02,-139.09 66.1,-199.18 32.63,-36.92 81.56,-52.38 139.95,-52.38 84.13,0 130.5,39.5 139.94,97.02l93.59 0z"/>
   <path class="fil5" d="M3955.61 3496.28l-0.17 -0.08c0.17,-11.62 -1.02,-28.27 -2.77,-43.61 -2.65,-1.59 -5.9,-2.42 -8.7,-3.8 -17.38,14.73 -31.28,31.47 -37.97,53.77 -8.5,28.38 -4.59,62.78 -4.59,62.78 0,0 -25.47,-25.87 -16.72,-76.44 3.69,-21.25 11.4,-38.4 20.07,-52.49 -24.2,-4.16 -49.25,-3.91 -69.08,0.9 -2.79,0.69 -5.31,2.02 -8.07,2.84 -10.07,21.45 -10.02,41.92 -3.3,59.64 6.33,16.77 21.61,37.86 21.61,37.86 0,0 -35.57,-8.54 -49.64,-41.1 -5.75,-13.38 -7.18,-26.62 -6.77,-38.79 -20.12,13 -36.91,30.3 -46.22,52.41 -26.4,62.71 -8.51,114.24 5.29,140.69 9.16,13.27 26.87,33.59 55.77,46.66 32.29,14.62 59.61,16.22 59.61,16.22 0,0 -17.8,10.9 -59.77,8.2 -22.49,-1.45 -41.57,-12.28 -54.21,-21.58 -18.89,39.86 -51.89,49.77 -79.96,52.36 -79.3,7.34 -173.74,-55.78 -255.8,-122.06 0.05,-0.13 0.07,-0.29 0.11,-0.43 -51.12,-39.45 -96.65,-82.86 -124.86,-113.06 -25,-26.81 -53.25,-67.45 -53.25,-67.45l56.11 -64.61c0,0 13.21,69.22 83.78,145.76 19.88,21.58 36.07,38.37 49.69,50.68 10.19,-58.24 11.73,-121.34 12.04,-121.5 36.91,-22.9 133.47,-80.46 205.36,-112.61 108.32,-48.51 209.81,-54.37 285.2,-49.67 -12.12,-49.14 -21.89,-98.34 -63.25,-198.54 -27.62,-66.91 -67.79,-133.81 -97.61,-178.12l0.06 0c0,0 -0.47,-0.65 -0.89,-1.26 -1.73,-2.56 -3.57,-5.37 -5.25,-7.79 -0.05,0 -0.17,0 -0.25,0 -1.26,-1.82 -2.39,-3.42 -2.83,-3.97 -10.14,-13.71 -62.37,-81.61 -93.81,-116.82 -8.97,-10.1 -19.82,-21.53 -30.75,-32.73 -0.03,0 -0.22,-0.24 -0.22,-0.24l-0.09 -0.04c-24.17,-24.83 -48.61,-48.39 -53.62,-53.21 -4.51,-4.48 -13.36,-12.5 -31.14,-26.57 -2.64,0.72 -5.14,2.29 -7.79,3.2 -1.78,20.73 0.11,40.69 9.61,59.92 13.13,26.56 39.48,49.09 39.48,49.09 0,0 -36.28,-1.57 -64.36,-44.55 -10.32,-15.8 -16.32,-31.44 -19.89,-46.03 -20.4,14.4 -38.16,32.74 -48.71,50.93 -1.21,2.06 -1.78,4.33 -2.88,6.44 7.81,17.87 19.98,30.54 34.76,37.82 16.05,7.93 41.6,12.94 41.6,12.94 0,0 -31.82,18.04 -64.3,3.8 -9.99,-4.37 -18.14,-10.43 -25.05,-17.01 -4.87,24.34 -4.05,49.5 4.35,73.13 14.98,42.13 49.11,73.66 94.72,89.93 16.07,3.09 40.96,4.87 68.91,-4.57 33.59,-11.34 54.68,-28.82 54.68,-28.82 0,0 -5.62,20.15 -38.16,46.8 -12.52,10.24 -27.08,15.72 -40.13,18.72 19.41,44.18 3.93,77.32 -15.96,98.92 -42.92,46.45 -129.08,76.42 -231.18,80.82 -23.91,-35.57 -45.61,-60.22 -56.07,-71.32 -0.8,-0.85 -5.45,-5.81 -11.53,-11.95 -5.05,-6.52 -32.9,-31.05 -62.29,-56.26 -8.97,12.85 -23.15,31.27 -42.65,50.76 -36.39,36.4 -100.8,55.72 -100.8,55.72 0,0 -74.56,-12.5 -135.42,-57.06 -25.11,-18.39 -56.33,-49.05 -68.66,-73.27 -41.12,-57.63 -22.13,-145.01 -22.13,-145.01 0,0 -20.09,-2.12 -44.54,-13.65 -35.57,-16.8 -66.19,-51.32 -76.3,-82.2 -11.53,-35.29 -10.84,-119.05 81.81,-149.9 42.26,-11.05 61.33,8.11 61.33,8.11 0,0 -65.21,2.84 -89.85,45.12 -24.61,42.29 -12.22,80.13 12.25,100.47 29.43,26.26 101.24,36.04 101.24,36.04 0,0 -22.36,79.11 0.36,127.03 12.33,26.05 55.39,73.41 103,95.46 30.23,14.07 56.84,25.27 84.64,30.56 44.21,-20.51 79.8,-71.9 81.39,-74.24 -0.11,-0.11 -0.3,-0.25 -0.44,-0.36 1.08,-1.35 2.24,-2.52 3.28,-3.91 25.57,-33.66 38.65,-77.34 38.6,-77.4l-0.36 0.17c0.13,-0.49 0.25,-0.82 0.25,-0.82 0,0 -86.41,-47.19 -54.9,-106.23 22.08,-41.42 79.55,-16.73 105.26,-1.76l30.2 17.57 79.91 -163.9c0,0 -110.22,-48.15 -164.23,-69.03l32.32 -89.82 -37.09 -12.39c-186.2,-62.23 -357.53,-72 -526.26,-43.88 -159.96,26.68 -293.98,115.37 -367.73,243.31 -74.59,129.46 -84.06,308.34 -24.08,443.96 42.89,96.98 101.57,157.93 112.36,284.45 8.25,96.9 -37.64,175.16 -70.86,245.63 22.36,2.11 48.71,6.33 48.71,6.33 34.38,4.43 100.44,7.46 156.21,9.36 39.51,-38.43 92.62,-106.31 105.45,-202.34 11.12,-104.47 -26.83,-188.78 -58.24,-244.82 -30.06,-53.61 -87.72,-133.29 -118.58,-194.01 -53.29,-104.68 -64.19,-203.03 -36.5,-293.23 17.1,-55.74 52.6,-102.26 96.03,-136.64 38.29,-28.16 58.49,-30.47 93.65,-41.19 -60.97,36.18 -109.75,90.05 -131.47,160.79 -27.7,90.21 -18.22,188.55 35.07,293.23 30.86,60.72 92.79,134.75 122.85,188.31 31.41,56.07 72.28,140.33 66.77,237.72 -2.36,65.03 -32.59,149 -70.51,206.55 -9.2,13.9 -14.89,22.05 -19.3,28.03 0.36,0 0.91,0.02 1.26,0.02 -30.25,41.35 -107.46,118.59 -210.37,157.15 -109.31,40.94 -230.65,44 -281.61,8.86 -2.56,-1.78 -4.95,-3.63 -7.21,-5.5 66.34,-7.63 134.8,-44.82 158.7,-120.13 26.72,-84.25 -4.54,-140.14 -56.24,-187.86 78.19,-104.07 83.34,-236.56 11.12,-318.64 -9.42,-10.73 -19.71,-20.15 -30.56,-28.25 24.45,-110.82 7.13,-252.08 -58.82,-300.27 -35.79,-26.13 -76.35,-34.25 -117.31,-23.6 -102.51,26.81 -168.8,149.29 -199.73,217.3 -31,67.92 -56.79,137.66 -85.53,272.59 -24.2,113.79 -28.27,335.27 19.53,491.43 7.21,23.43 22.45,21.86 23.12,9 2.58,-55.63 10.52,-100.93 20.43,-137.44 11.61,-42.86 26.01,-73.52 37.82,-94.19 37.52,-65.62 72.72,-205.98 26.95,-321.73 -16.98,-43 -9.77,-109.55 16.05,-180.56 37.96,-81.87 101.54,-170.11 159.9,-185.39 19.74,-5.18 37.39,-1.4 55.52,11.83 25.5,18.67 52.97,109.42 33.89,210.03 -13.29,-2.73 -26.89,-3.74 -40.49,-2.92 -46.36,2.73 -88.28,26.68 -115.11,65.59 -41.27,60.09 -40.92,151.32 25.57,231.81 -57.69,82.05 -101.35,158.22 -88.19,253.13 8.7,62.62 51.59,110.37 113.43,130.03 9.53,30.09 28.42,55.47 55.56,74.21 36,24.77 88.82,37.13 149.72,37.13 33.97,0 70.43,-3.98 107.84,-11.72 -9.61,44.51 -46.28,89.81 -74.48,106.74 -64.38,38.65 -153.82,31.91 -236.86,-47.6 0,0 -17.68,-17.37 -29.35,-28.15 -48.06,52.52 -89.79,150.02 -89.82,219.43l40.6 58.21c174.35,217.82 358.38,318.15 512.02,373.16 0,-0.04 0.03,-0.06 0.06,-0.09 3.35,1.21 67.02,24.2 121.6,38.68 65.29,17.32 133.18,20.84 133.18,20.84l0.31 -0.83c2.36,-2.37 4.12,-5.53 6.29,-8.15 -15.19,-23.95 -33,-43.38 -59.31,-53.32 -27.72,-10.49 -62.31,-8.97 -62.31,-8.97 0,0 27.58,-23.59 77.39,-11.35 30.15,7.41 51.68,22.3 66.73,36.48 8.92,-21.11 14.15,-43.63 14.2,-62.95 0.03,-1.84 -0.47,-3.58 -0.55,-5.4 -2.67,-2.58 -5.34,-5.22 -8.53,-8.06 -27.06,-23.98 -54.73,-28.19 -78.5,-21.06 -17.15,5.15 -39.24,18.91 -39.24,18.91 0,0 10.97,-34.87 44.47,-46.63 27.33,-9.58 53.51,-3.09 70.05,3.52 -8.24,-18.52 -20.43,-35.13 -36.06,-48.47 -26.65,-22.86 -72.81,-42.21 -110.77,-37.91 -37.99,4.29 -53.84,10.93 -75.7,24.96 -22.15,14.27 -34.82,26.41 -48.58,51.9 -16.85,31.22 -20.32,58.38 -20.32,58.38 0,0 -9.66,-18.56 -4.02,-60.23 4.52,-33.58 29.62,-58.24 37.52,-65.31 -43.3,-31.63 -87.41,-96.87 -90.28,-140.91 89.35,23.65 178.89,22.33 251.37,-3.94 7.4,-3.5 15.56,-7.51 22.66,-12.44 56.89,-39.26 72.75,-69.17 90.97,-109.56 29.82,-66.1 44.24,-171.86 20.59,-225.07 -22.74,-51.12 -109.36,-105.1 -109.36,-105.1l62.48 -15.61c0,0 34.16,20.59 57.52,45.45 23.35,24.83 49.39,49.69 49.39,49.69 0,0 42.2,53.27 87.64,66.03 43.6,12.28 57.58,10.19 93.72,7.82 12.36,-0.82 28.2,-3.63 46.5,-7.54 0,-0.09 -0.03,-0.11 -0.05,-0.16 40.49,-12.34 70.88,-21.98 106.19,-40.31 -37.46,-19.02 -71.5,-47.55 -99.36,-79.08 -53.28,-60.36 -71.71,-169.02 -71.71,-169.02l63.89 -28.21c0,0 -0.72,87.14 44.02,154.7 23.81,35.95 50.98,65.75 101.54,96.48 34.27,20.81 76.54,35.98 104.43,44.7 22.36,6.25 44.51,11.62 60.83,14.67 53.74,10.08 89.1,13.06 171.15,14.87 21.48,0.44 62.73,4.16 88.17,14.1 26.62,10.32 57.58,29.21 82.99,53.76 23.23,22.41 57.6,73.57 67.68,109.25 17.48,-22.9 58.68,-91.08 102.97,-196.53 30.83,-73.41 57.69,-210.53 57.09,-211.27 5.12,-22.49 12.78,-87.58 13.79,-123.01 1.05,-36.64 2.92,-124.12 2.92,-124.12zm-1914.34 -8.07c1.96,1.52 3.96,3.03 6.03,4.49 10.51,7.68 20.89,15.09 31.03,22.27 8.97,6.42 17.42,12.47 25.37,18.36 -38.26,54.73 -83.4,132 -95.07,204.71 -17.39,-11.15 -32.65,-29.1 -36.67,-57.9 -9.14,-65.81 22.66,-124.5 69.31,-191.92zm55.42 -285.08c-1.27,4.05 -2.51,8.07 -3.72,12 -20.21,65.24 -35.07,107.93 -63.55,152.25 -32.13,-48.58 -32.16,-97.71 -9.86,-130.17 14.42,-20.98 35.87,-33.34 60.36,-34.8 1.62,-0.1 3.22,-0.16 4.84,-0.16 3.97,0 7.96,0.3 11.93,0.88zm51.23 271.52c-8.87,-6.44 -17.95,-12.91 -27.01,-19.38 -9.93,-7.07 -20.07,-14.31 -30.36,-21.86 -2.29,-1.64 -4.49,-3.27 -6.69,-4.92 42.45,-61.05 59.72,-114.98 78.83,-176.47 47.13,55.64 40.72,147.47 -14.78,222.63zm-69.47 284.6c6,-53.39 41.26,-120.99 82.98,-181.4 34.49,33.42 45.75,63.64 31.28,109.3 -21.15,66.64 -60.33,71.05 -114.26,72.1zm875.02 -1128.47c0,0 69.5,6.11 111.67,25.49 -61.87,18.58 -88.41,51.87 -123.51,56.76 -5.19,-26.54 11.84,-82.25 11.84,-82.25zm468.91 349.17c-34.66,17.12 -73.05,11.04 -87.06,-4.65 -14.04,-15.69 -17.09,-25.11 -25.24,-41.57 -8.68,-16.46 -17.65,-34.36 -29.02,-51.53 -11.61,-16.93 -25.77,-33.56 -43.55,-45.07 -17.61,-11.7 -42.64,-20.84 -56.64,-20.46 -13.99,0.39 -8.24,5.68 -2.48,8.43 5.78,2.72 30.44,19.55 40.91,32.57 10.63,12.96 17.51,28.16 22.68,44.35 11.5,32.53 12.74,68.67 34.8,111.84 2.83,5.42 5.94,10.79 10.27,16.23l6.07 8.07 6.65 7.1c8.81,9.64 19.93,17.95 32.36,24.83 25.06,13.77 58.41,14.85 84.84,3.01 26.92,-11.29 45.61,-33.42 54.89,-55.89 9.25,-22.79 9.8,-53.46 2.84,-68.03 -6.91,-14.54 -24.34,16.59 -52.31,30.77zm-790.57 1380.61c155.49,28.29 234.24,135.34 273.22,306.16 268.36,-17.2 461.4,-119.13 592.62,-215.52l0.05 0.27c0,0 66.12,-52.36 110.05,-92.62 15.5,-14.24 30.83,-30.78 43.75,-45.54 0,0.25 0.11,0.56 0.11,0.81 0,0 20.23,-22.22 33.11,-38.11 -0.46,-2.45 -1.74,-4.81 -2.39,-7.24 -25.64,-3.13 -49.97,-1.89 -72.84,10.41 -26.09,14.07 -47.64,41.16 -47.64,41.16 0,0 0.29,-36.29 42.25,-65.87 21,-14.81 42.2,-21.97 60.58,-25.13 -12.83,-20.38 -29.29,-38.4 -46.06,-49.75 -2,-1.37 -4.29,-2.11 -6.35,-3.39 -30.23,6.42 -49.33,22.72 -58.6,43.28 -7.35,16.36 -11.46,42.04 -11.46,42.04 0,0 -19.15,-31.16 -6.02,-64.14 6.96,-17.59 18.83,-30.2 30.63,-39.22 -21.19,-4.3 -43.1,-4.05 -64.21,1.81 -49.6,13.85 -100.3,51.05 -111.37,134.06 -0.35,14.53 1.38,32.21 8.51,51.15 12.49,33.17 30.72,53.62 30.72,53.62 0,0 -20.32,-4.87 -48.09,-36.47 -9.53,-10.85 -15.31,-23.51 -18.92,-35.32 -48.42,25.54 -129.56,41.38 -171.46,47.95 -52.29,8.2 -90.28,11.29 -115.41,-3.6 -26.35,-15.64 -35.68,-27.73 -48.48,-52.72 -16.21,-31.77 -9.93,-84.23 -2.88,-105.59 13.26,-39.92 76.48,-98.4 53.21,-177.18 -1.93,-10.35 -3.72,-18.17 -5.51,-25.22 -7.85,3.55 -15.5,6.78 -22.69,9.23 -88.77,30.55 -193.86,-8.51 -193.86,-8.51 0,0 -6.96,87.58 -41.18,140.58 -42.59,66.03 -75.36,93.03 -112.48,120.32 -23.2,17.04 -44.9,27.58 -62.8,34.35 -0.17,17.76 -2.37,37.13 -8.09,53.96z"/>
  </g>
 </g>
</svg>
